# xmcd
#
# Track frame offsets: 
#        150
#        11435
#        25610
#        38697
#        56835
#        72222
#        84410
#        100085
#        113660
#        127760
#
# Disc length: 1910 seconds
#
# Revision: 6
# Processed by: cddbd v1.5.1PL0 Copyright (c) Steve Scherf et al.
# Submitted via: ExactAudioCopy v0.95a5
#
DISCID=6c07740a
DTITLE=Kris Kristofferson - Jesus Was A Capricorn
DYEAR=1991
DGENRE=Country
TTITLE0=Jesus Was A Capricorn (Owed To John Prine)
TTITLE1=Nobody Wins
TTITLE2=It Sure Was (Love) (With Rita Coolidge)
TTITLE3=Sugar Man
TTITLE4=Help Me (With Larry Gatlin)
TTITLE5=Jesse Younger
TTITLE6=Give It Time To Be Tender (With Rita Coolidge)
TTITLE7=Out Of Mind, Out Of Sight
TTITLE8=Enough For You
TTITLE9=Why Me
EXTD=(c)1991 Sony Music Special Products - Monument\n(p)1972 Monument\n
EXTD=AK 47064\nupc 07464470642
EXTT0=
EXTT1=
EXTT2=
EXTT3=
EXTT4=
EXTT5=
EXTT6=
EXTT7=
EXTT8=
EXTT9=
PLAYORDER=
